<svg xmlns="http://www.w3.org/2000/svg" xmlns:xlink="http://www.w3.org/1999/xlink" width="40" zoomAndPan="magnify" viewBox="0 0 30 30.000001" height="40" preserveAspectRatio="xMidYMid meet" version="1.0"><defs><clipPath id="baa257fb93"><path d="M 0.484375 0 L 29.515625 0 L 29.515625 22 L 0.484375 22 Z M 0.484375 0 " clip-rule="nonzero"/></clipPath></defs><path fill="#824737" d="M 5.347656 22.066406 C 9.949219 23.402344 14.128906 25.546875 17.882812 28.503906 C 17.128906 28.65625 16.367188 28.746094 15.597656 28.777344 C 14.832031 28.808594 14.066406 28.78125 13.300781 28.691406 C 12.539062 28.601562 11.789062 28.453125 11.046875 28.246094 C 10.308594 28.039062 9.589844 27.773438 8.890625 27.453125 C 8.195312 27.132812 7.527344 26.757812 6.890625 26.332031 C 6.253906 25.90625 5.652344 25.433594 5.089844 24.914062 C 4.527344 24.394531 4.011719 23.832031 3.539062 23.230469 C 3.066406 22.628906 2.644531 21.996094 2.273438 21.328125 C 3.222656 21.511719 4.253906 21.753906 5.347656 22.066406 Z M 5.347656 22.066406 " fill-opacity="1" fill-rule="nonzero"/><path fill="#b55232" d="M 5.578125 21.136719 C 5.09375 21 4.625 20.875 4.167969 20.765625 C 5.332031 20.796875 6.589844 20.871094 7.914062 21.007812 C 12.378906 21.464844 18.335938 22.714844 23.648438 25.953125 C 22.257812 26.980469 20.726562 27.738281 19.0625 28.21875 C 17.617188 27.03125 16.09375 25.957031 14.484375 24.996094 C 11.6875 23.324219 8.714844 22.039062 5.578125 21.136719 Z M 5.578125 21.136719 " fill-opacity="1" fill-rule="nonzero"/><path fill="#f3ac71" d="M 27.261719 22.097656 C 26.484375 23.308594 25.546875 24.382812 24.449219 25.316406 C 22.460938 24.078125 20.359375 23.0625 18.144531 22.28125 C 15.054688 21.171875 11.636719 20.421875 7.988281 20.050781 C 6.410156 19.890625 4.917969 19.8125 3.574219 19.792969 C 5.195312 19.363281 6.839844 19.058594 8.511719 18.878906 C 13.042969 18.386719 19.789062 18.613281 27.261719 22.097656 Z M 27.261719 22.097656 " fill-opacity="1" fill-rule="nonzero"/><g clip-path="url(#baa257fb93)"><path fill="#57744b" d="M 29.507812 14.398438 C 29.511719 16.835938 28.925781 19.125 27.753906 21.265625 C 24.738281 19.839844 21.589844 18.835938 18.304688 18.25 C 17.507812 18.113281 16.707031 18 15.90625 17.917969 C 15.851562 17.011719 15.933594 16.117188 16.144531 15.234375 C 16.34375 15.382812 16.566406 15.484375 16.808594 15.542969 C 17.054688 15.601562 17.296875 15.609375 17.542969 15.570312 C 17.792969 15.53125 18.019531 15.445312 18.234375 15.3125 C 18.445312 15.179688 18.621094 15.015625 18.765625 14.8125 C 18.578125 14.660156 18.371094 14.550781 18.140625 14.480469 C 17.910156 14.410156 17.675781 14.386719 17.433594 14.40625 C 17.195312 14.429688 16.96875 14.492188 16.753906 14.601562 C 16.539062 14.710938 16.351562 14.855469 16.195312 15.035156 C 16.328125 14.523438 16.503906 14.027344 16.722656 13.542969 C 16.921875 13.695312 17.144531 13.800781 17.390625 13.863281 C 17.636719 13.925781 17.882812 13.9375 18.132812 13.898438 C 18.382812 13.859375 18.613281 13.773438 18.828125 13.640625 C 19.042969 13.507812 19.222656 13.339844 19.367188 13.136719 C 19.183594 12.988281 18.976562 12.878906 18.75 12.808594 C 18.523438 12.738281 18.289062 12.714844 18.050781 12.730469 C 17.816406 12.75 17.589844 12.8125 17.375 12.914062 C 17.164062 13.019531 16.976562 13.160156 16.816406 13.335938 C 17.046875 12.855469 17.308594 12.394531 17.605469 11.953125 C 17.792969 12.117188 18.007812 12.234375 18.242188 12.3125 C 18.480469 12.390625 18.722656 12.417969 18.972656 12.398438 C 19.222656 12.378906 19.457031 12.3125 19.679688 12.199219 C 19.902344 12.085938 20.089844 11.933594 20.25 11.742188 C 20.09375 11.59375 19.914062 11.472656 19.710938 11.386719 C 19.511719 11.296875 19.300781 11.246094 19.082031 11.234375 C 18.859375 11.21875 18.644531 11.242188 18.433594 11.304688 C 18.222656 11.367188 18.03125 11.464844 17.855469 11.59375 C 18.171875 11.15625 18.515625 10.742188 18.890625 10.351562 C 19.011719 10.523438 19.167969 10.667969 19.347656 10.777344 C 19.527344 10.890625 19.722656 10.964844 19.933594 11 C 20.144531 11.035156 20.355469 11.027344 20.5625 10.980469 C 20.773438 10.933594 20.964844 10.847656 21.136719 10.722656 C 21.035156 10.5625 20.910156 10.421875 20.757812 10.304688 C 20.605469 10.1875 20.4375 10.101562 20.257812 10.042969 C 20.074219 9.984375 19.886719 9.960938 19.691406 9.96875 C 19.5 9.980469 19.316406 10.019531 19.140625 10.097656 C 19.476562 9.757812 19.835938 9.441406 20.210938 9.148438 C 20.210938 9.152344 20.210938 9.152344 20.210938 9.15625 C 20.460938 9.226562 20.710938 9.25 20.964844 9.21875 C 21.222656 9.1875 21.460938 9.109375 21.683594 8.980469 C 21.90625 8.851562 22.09375 8.683594 22.242188 8.476562 C 22.394531 8.269531 22.5 8.042969 22.558594 7.792969 C 22.316406 7.722656 22.070312 7.699219 21.820312 7.726562 C 21.570312 7.753906 21.335938 7.828125 21.117188 7.953125 C 20.894531 8.074219 20.710938 8.234375 20.554688 8.429688 C 20.402344 8.628906 20.292969 8.847656 20.226562 9.089844 C 19.921875 9.257812 19.632812 9.429688 19.359375 9.609375 C 19.59375 9.320312 19.710938 8.992188 19.71875 8.625 C 19.726562 8.257812 19.621094 7.921875 19.402344 7.625 C 19.214844 7.742188 19.054688 7.894531 18.929688 8.074219 C 18.804688 8.253906 18.71875 8.453125 18.671875 8.667969 C 18.625 8.886719 18.625 9.101562 18.667969 9.316406 C 18.710938 9.535156 18.792969 9.734375 18.917969 9.914062 C 18.609375 10.140625 18.324219 10.367188 18.0625 10.601562 C 18.226562 10.269531 18.269531 9.917969 18.195312 9.550781 C 18.117188 9.1875 17.9375 8.882812 17.648438 8.640625 C 17.496094 8.796875 17.378906 8.976562 17.300781 9.175781 C 17.21875 9.378906 17.179688 9.585938 17.183594 9.804688 C 17.1875 10.019531 17.230469 10.230469 17.320312 10.429688 C 17.40625 10.628906 17.527344 10.800781 17.683594 10.953125 C 17.429688 11.203125 17.191406 11.464844 16.96875 11.742188 C 17.011719 11.398438 16.949219 11.078125 16.789062 10.773438 C 16.625 10.46875 16.386719 10.238281 16.078125 10.082031 C 15.972656 10.261719 15.902344 10.453125 15.867188 10.660156 C 15.835938 10.867188 15.839844 11.070312 15.886719 11.273438 C 15.933594 11.476562 16.015625 11.664062 16.132812 11.835938 C 16.25 12.007812 16.394531 12.152344 16.570312 12.269531 C 16.382812 12.539062 16.214844 12.804688 16.066406 13.070312 C 16.066406 12.921875 16.046875 12.773438 16.003906 12.628906 C 15.871094 12.175781 15.683594 12.050781 15.292969 11.855469 C 15.066406 12.226562 14.882812 12.664062 15.015625 13.117188 C 15.128906 13.511719 15.367188 13.628906 15.691406 13.835938 C 15.402344 14.5 15.191406 15.1875 15.070312 15.902344 C 14.933594 14.851562 14.652344 13.839844 14.226562 12.867188 C 14.449219 12.726562 14.632812 12.550781 14.785156 12.339844 C 14.9375 12.125 15.042969 11.894531 15.101562 11.640625 C 15.160156 11.386719 15.171875 11.132812 15.132812 10.875 C 15.089844 10.621094 15.003906 10.378906 14.871094 10.15625 C 14.53125 10.328125 14.265625 10.570312 14.066406 10.890625 C 13.867188 11.210938 13.765625 11.554688 13.765625 11.929688 C 13.574219 11.59375 13.371094 11.265625 13.148438 10.945312 C 13.359375 10.804688 13.539062 10.625 13.683594 10.414062 C 13.832031 10.203125 13.929688 9.972656 13.988281 9.722656 C 14.042969 9.472656 14.050781 9.222656 14.007812 8.96875 C 13.96875 8.71875 13.882812 8.480469 13.75 8.261719 C 13.367188 8.453125 13.078125 8.734375 12.878906 9.109375 C 12.679688 9.480469 12.605469 9.878906 12.65625 10.296875 C 12.382812 9.957031 12.089844 9.632812 11.777344 9.328125 C 11.96875 9.140625 12.121094 8.925781 12.226562 8.683594 C 12.335938 8.4375 12.390625 8.183594 12.394531 7.917969 C 12.398438 7.648438 12.351562 7.390625 12.25 7.144531 C 12.152344 6.898438 12.007812 6.679688 11.820312 6.488281 C 11.46875 6.785156 11.246094 7.15625 11.152344 7.605469 C 11.058594 8.054688 11.113281 8.484375 11.316406 8.894531 C 10.992188 8.605469 10.640625 8.324219 10.261719 8.050781 C 10.414062 7.824219 10.515625 7.582031 10.570312 7.316406 C 10.621094 7.050781 10.621094 6.785156 10.5625 6.519531 C 10.507812 6.253906 10.402344 6.011719 10.246094 5.789062 C 10.089844 5.566406 9.898438 5.382812 9.667969 5.238281 C 9.398438 5.605469 9.265625 6.011719 9.277344 6.464844 C 9.285156 6.917969 9.433594 7.324219 9.71875 7.675781 C 9.386719 7.457031 9.03125 7.242188 8.65625 7.035156 C 8.574219 6.742188 8.441406 6.472656 8.253906 6.230469 C 8.0625 5.988281 7.832031 5.792969 7.566406 5.644531 C 7.296875 5.492188 7.007812 5.402344 6.699219 5.367188 C 6.394531 5.335938 6.09375 5.359375 5.796875 5.449219 C 5.867188 5.753906 5.996094 6.035156 6.179688 6.289062 C 6.367188 6.542969 6.597656 6.75 6.871094 6.90625 C 7.144531 7.066406 7.4375 7.164062 7.753906 7.199219 C 8.066406 7.238281 8.375 7.210938 8.679688 7.121094 L 8.679688 7.113281 C 9.144531 7.476562 9.582031 7.863281 9.996094 8.277344 C 9.777344 8.183594 9.550781 8.132812 9.316406 8.125 C 9.082031 8.113281 8.851562 8.140625 8.625 8.214844 C 8.402344 8.285156 8.195312 8.390625 8.011719 8.535156 C 7.824219 8.679688 7.667969 8.851562 7.546875 9.046875 C 7.757812 9.199219 7.992188 9.304688 8.25 9.363281 C 8.503906 9.421875 8.761719 9.433594 9.019531 9.390625 C 9.277344 9.347656 9.519531 9.253906 9.742188 9.117188 C 9.964844 8.980469 10.152344 8.804688 10.304688 8.59375 C 10.761719 9.074219 11.183594 9.582031 11.574219 10.117188 C 11.359375 9.957031 11.121094 9.839844 10.863281 9.765625 C 10.605469 9.6875 10.339844 9.65625 10.070312 9.671875 C 9.800781 9.691406 9.542969 9.75 9.296875 9.859375 C 9.046875 9.964844 8.828125 10.113281 8.632812 10.296875 C 8.828125 10.53125 9.0625 10.71875 9.335938 10.855469 C 9.605469 10.996094 9.894531 11.078125 10.203125 11.101562 C 10.507812 11.125 10.804688 11.089844 11.097656 10.996094 C 11.386719 10.902344 11.648438 10.753906 11.878906 10.554688 C 12.242188 11.097656 12.566406 11.664062 12.847656 12.253906 C 12.652344 12.035156 12.421875 11.863281 12.160156 11.738281 C 11.898438 11.609375 11.625 11.53125 11.332031 11.511719 C 11.039062 11.488281 10.753906 11.519531 10.476562 11.605469 C 10.199219 11.691406 9.945312 11.824219 9.71875 12.007812 C 9.894531 12.257812 10.117188 12.464844 10.378906 12.628906 C 10.644531 12.789062 10.929688 12.894531 11.234375 12.941406 C 11.539062 12.988281 11.84375 12.972656 12.144531 12.898438 C 12.445312 12.824219 12.71875 12.691406 12.964844 12.507812 C 13.230469 13.101562 13.449219 13.710938 13.613281 14.339844 C 13.421875 14.117188 13.191406 13.941406 12.929688 13.808594 C 12.664062 13.675781 12.386719 13.597656 12.089844 13.570312 C 11.796875 13.546875 11.507812 13.574219 11.226562 13.660156 C 10.941406 13.746094 10.6875 13.882812 10.457031 14.066406 C 10.632812 14.316406 10.851562 14.519531 11.109375 14.683594 C 11.371094 14.84375 11.652344 14.949219 11.957031 15 C 12.257812 15.046875 12.558594 15.035156 12.855469 14.964844 C 13.15625 14.894531 13.429688 14.769531 13.675781 14.589844 C 13.925781 15.632812 14.027344 16.691406 13.976562 17.765625 C 12.101562 17.671875 10.230469 17.726562 8.367188 17.929688 C 5.988281 18.183594 3.667969 18.6875 1.398438 19.4375 C 0.785156 17.8125 0.480469 16.132812 0.484375 14.398438 C 0.484375 6.449219 6.980469 0.0078125 14.996094 0.0078125 C 23.011719 0.0078125 29.507812 6.449219 29.507812 14.398438 Z M 29.507812 14.398438 " fill-opacity="1" fill-rule="nonzero"/></g></svg>